<?xml version="1.0" encoding="UTF-8"?>
<!DOCTYPE svg  PUBLIC '-//W3C//DTD SVG 1.1//EN'  'http://www.w3.org/Graphics/SVG/1.1/DTD/svg11.dtd'>
<svg width="135.47mm" height="135.47mm" clip-rule="evenodd" fill-rule="evenodd" image-rendering="optimizeQuality" shape-rendering="geometricPrecision" text-rendering="geometricPrecision" version="1.1" viewBox="0 0 13547 13547" xml:space="preserve" xmlns="http://www.w3.org/2000/svg">
 <defs>
  <style type="text/css">
   <![CDATA[
    .fil0 {fill:#33CCAA}
   ]]>
  </style>
 </defs>
 
  
  <path class="fil0" d="m1777.3 3653.3h974.54v7856h-974.54c-459.27 0-834.09-374.82-834.09-834.1v-6188.8c0-458.35 374.82-833.16 834.09-833.16zm3546.1 1532.3c692.48 0 1280.2 620.2 1489.7 1480.9-52.63 46.23-104.26 94.44-154.92 145.09-460.35 460.35-743.16 1014.6-827.26 1537.5-59.02 364.45-21.63 714.63 117.06 1010.2-133.79 80.17-277.4 135.75-427.4 161.81 291.16-1149.4 150.5-1720.9-67.38-2250.1-211-512.5-497.23-1061.9-174.1-2084.9 14.25 0 29.5-0.48 44.26-0.48zm4112.2 1325.5c613.8 613.81 422.49 1800.6-427.39 2650.5-784.47 784.46-1855.7 1007.8-2498.5 555.26 1018.6-606.92 1323-1110.6 1543.4-1638.8 212.95-511.5 399.36-1102.7 1351-1597 10.32 9.35 21.14 19.67 31.47 30zm-3029.2 3123.6c-16.73-14.76-32.96-30-48.69-45.75-613.8-613.8-422.48-1800.6 427.4-2650.5 800.69-800.7 1899.9-1016.6 2537.8-526.25-1020.5 515.43-1296.4 948.25-1520.7 1486.8-210.5 504.63-438.23 1151.4-1395.8 1735.7zm-1016.6-98.37c-22.14 1.47-44.26 1.97-66.4 1.97-868.08 0-1571.9-974.32-1571.9-2176.3 0-1132.2 624.62-2062.7 1422.9-2166.5-357.55 1086-246.41 1587.1-24.59 2126.2 208.04 506.1 504.13 1124.3 240.02 2214.7zm520.01-7499.9h1659.7c516.19 0 938.45 422.27 938.45 938.46v501.02l-597.82 0.04v-502.93c0-181.25-148.04-329.27-329.27-329.27h-1682.4c-181.26 0-329.27 148.05-329.27 329.27v502.93h-597.79v-501.03c0-516.22 422.27-938.49 938.46-938.49zm-2662.6 1616.9h6941.3v7856h-6941.3v-7856zm7436.6 0h1085.5c458.31 0 834.09 374.81 834.09 834.09v6188.8c0 458.3-374.81 834.09-834.09 834.09h-1085.5v-7857z"/>
 
</svg>
