<?xml version="1.0" encoding="UTF-8"?>
<!DOCTYPE svg PUBLIC "-//W3C//DTD SVG 1.1//EN" "http://www.w3.org/Graphics/SVG/1.1/DTD/svg11.dtd">
<!-- Creator: CorelDRAW (Versão OEM) -->
<svg xmlns="http://www.w3.org/2000/svg" xml:space="preserve" width="135.467mm" height="135.467mm" version="1.1" style="shape-rendering:geometricPrecision; text-rendering:geometricPrecision; image-rendering:optimizeQuality; fill-rule:evenodd; clip-rule:evenodd"
viewBox="0 0 13546.66 13546.66"
 xmlns:xlink="http://www.w3.org/1999/xlink"
 xmlns:xodm="http://www.corel.com/coreldraw/odm/2003">
 <defs>
  <style type="text/css">
   <![CDATA[
    .fil0 {fill:#33CCAA}
   ]]>
  </style>
 </defs>
 <g id="Camada_x0020_1">
  <metadata id="CorelCorpID_0Corel-Layer"/>
  <path class="fil0" d="M1777.34 3653.32l974.54 0 0 7856.02 -974.54 0c-459.27,0 -834.09,-374.82 -834.09,-834.1l0 -6188.76c0,-458.35 374.82,-833.16 834.09,-833.16zm3546.08 1532.27c692.48,0 1280.23,620.2 1489.74,1480.89 -52.63,46.23 -104.26,94.44 -154.92,145.09 -460.35,460.35 -743.16,1014.65 -827.26,1537.46 -59.02,364.45 -21.63,714.63 117.06,1010.21 -133.79,80.17 -277.4,135.75 -427.4,161.81 291.16,-1149.4 150.5,-1720.91 -67.38,-2250.11 -211,-512.5 -497.23,-1061.87 -174.1,-2084.87 14.25,0 29.5,-0.48 44.26,-0.48zm4112.17 1325.47c613.8,613.81 422.49,1800.59 -427.39,2650.47 -784.47,784.46 -1855.66,1007.75 -2498.48,555.26 1018.57,-606.92 1323.02,-1110.55 1543.35,-1638.77 212.95,-511.5 399.36,-1102.68 1351.05,-1596.96 10.32,9.35 21.14,19.67 31.47,30zm-3029.17 3123.61c-16.73,-14.76 -32.96,-30 -48.69,-45.75 -613.8,-613.8 -422.48,-1800.58 427.4,-2650.46 800.69,-800.7 1899.94,-1016.61 2537.83,-526.25 -1020.54,515.43 -1296.45,948.25 -1520.73,1486.79 -210.5,504.63 -438.23,1151.37 -1395.81,1735.67zm-1016.6 -98.37c-22.14,1.47 -44.26,1.97 -66.4,1.97 -868.08,0 -1571.89,-974.32 -1571.89,-2176.34 0,-1132.19 624.62,-2062.73 1422.86,-2166.51 -357.55,1085.96 -246.41,1587.13 -24.59,2126.17 208.04,506.1 504.13,1124.33 240.02,2214.71zm520.01 -7499.92l1659.66 0c516.19,0 938.45,422.27 938.45,938.46l0 501.02 -597.82 0.04 0 -502.93c0,-181.25 -148.04,-329.27 -329.27,-329.27l-1682.42 0c-181.26,0 -329.27,148.05 -329.27,329.27l0 502.93 -597.79 0 0 -501.03c0,-516.22 422.27,-938.49 938.46,-938.49zm-2662.63 1616.94l6941.27 0 0 7856.02 -6941.27 0 0 -7856.02zm7436.59 0l1085.54 0c458.31,0 834.09,374.81 834.09,834.09l0 6188.77c0,458.3 -374.81,834.09 -834.09,834.09l-1085.54 0 0 -7856.95z"/>
 </g>
</svg>
