<?xml version="1.0" encoding="UTF-8"?>
<!DOCTYPE svg PUBLIC "-//W3C//DTD SVG 1.1//EN" "http://www.w3.org/Graphics/SVG/1.1/DTD/svg11.dtd">
<!-- Creator: CorelDRAW (Versão OEM) -->
<svg xmlns="http://www.w3.org/2000/svg" xml:space="preserve" width="210mm" height="297mm" version="1.1" style="shape-rendering:geometricPrecision; text-rendering:geometricPrecision; image-rendering:optimizeQuality; fill-rule:evenodd; clip-rule:evenodd"
viewBox="0 0 21000 29700"
 xmlns:xlink="http://www.w3.org/1999/xlink"
 xmlns:xodm="http://www.corel.com/coreldraw/odm/2003">
 <defs>
  <style type="text/css">
   <![CDATA[
    .fil7 {fill:#00AD93;fill-rule:nonzero}
    .fil2 {fill:#00AD93;fill-rule:nonzero}
    .fil1 {fill:#00D1B2;fill-rule:nonzero}
    .fil6 {fill:#00E6C4;fill-rule:nonzero}
    .fil0 {fill:#363636;fill-rule:nonzero}
    .fil10 {fill:#D7F2EE;fill-rule:nonzero}
    .fil3 {fill:#E33255;fill-rule:nonzero}
    .fil8 {fill:#EAA16E;fill-rule:nonzero}
    .fil5 {fill:whitesmoke;fill-rule:nonzero}
    .fil4 {fill:#FF3860;fill-rule:nonzero}
    .fil9 {fill:#FFC490;fill-rule:nonzero}
   ]]>
  </style>
 </defs>
 <g id="Camada_x0020_1">
  <metadata id="CorelCorpID_0Corel-Layer"/>
  <g id="_2186706755488">
   <path class="fil0" d="M9247.34 16675.75c-1821.87,-405.24 -2221.97,-641.14 -2218.32,-2405.53 4,-1920.35 1.11,-3853.97 1889.18,-4993.56 1491.2,-900.14 3478.2,-327.77 4352.04,1152.57 662.46,1122.42 1438.49,4980.08 -18.26,5804.29 -407.01,230.43 -983.54,406 -1453.22,442.22 -2.88,97.1 -5.4,193.17 0,290.22 74.51,196.61 158.06,397.09 274.48,572.74 -521.86,520.91 -956.5,1097.39 -1540.14,1558.58 -517.46,-460.16 -992.26,-942.87 -1473.59,-1440.34 80.7,-246.41 92.23,-503.87 183.22,-750.07 3.89,-76.7 5.32,-154.33 4.6,-231.14l0.01 0.02z"/>
   <path class="fil1" d="M11965.52 17193.3c104.72,129.67 608.38,752.85 720.59,788.51l48.9 0c1320.03,718.61 2871.07,492.13 3402.01,2244.54 89.83,296.62 144.01,1375.73 181.5,2157.73l-11509.36 0c29.71,-557.77 71.33,-1420.47 149.04,-1867.85 252.65,-1455.1 1846.61,-2076.45 3153.89,-2534.42l1004.76 -704.8c451.49,466.62 962.87,911.09 1448.21,1342.71 547.45,-432.57 910.93,-937.79 1400.47,-1426.42l-0.01 0z"/>
   <path class="fil2" d="M14534.47 22384.08l-171.37 0 0 -837.17c0,-23.6 9.66,-45.03 25.16,-60.54 -47.08,0.05 -85.24,38.26 -85.24,85.35 0,47.13 38.22,85.35 85.35,85.35 47.09,0 85.3,-38.16 85.35,-85.25l0 837.17 60.75 -24.91zm-7787.84 0l-171.4 0 0 -837.17c0,-23.5 9.66,-44.93 25.19,-60.48 -46.86,0.17 -84.77,38.23 -84.77,85.1 0,47 38.12,85.12 85.12,85.12 46.87,0 84.93,-37.91 85.12,-84.78 15.5,15.53 25.16,36.96 25.16,60.54l0 837.17 35.58 -85.5z"/>
   <path class="fil3" d="M10565.06 18619.72c381.64,266.57 644.76,697.39 972.85,1023.09 171.5,130.44 300.04,312.71 471.81,442.36 -165.1,586.69 -402.25,1175.86 -627.67,1741.99 -39.79,173.99 -101.18,362.66 -171,556.92l-1342.79 0c-64.43,-170.63 -120.99,-331.6 -159.6,-471.73 -162.24,-603.51 -417.96,-1184.41 -580.15,-1791.94 161.85,-153.54 300.01,-328.9 467.04,-477.6 329.86,-335.52 625.82,-699.43 969.5,-1023.09l0.01 0z"/>
   <path class="fil4" d="M10565.06 18619.72c381.64,266.57 644.76,697.39 972.85,1023.09 171.5,130.44 300.04,312.68 471.81,442.36 -165.1,586.69 -402.25,1175.86 -627.67,1741.99 -39.79,173.99 -101.18,362.64 -171,556.92l-647.5 0 0 -3762.9 1.51 -1.46z"/>
   <path class="fil5" d="M9595.55 19642.81c184.84,234.74 396.61,452.01 571.21,693.29 -181.77,515.51 -269.69,1063.49 -458.07,1576.26 -162.3,-603.54 -417.96,-1184.41 -580.18,-1791.94 161.87,-153.51 300.01,-328.9 467.04,-477.6l0 -0.01zm1942.35 0c171.53,130.44 300.01,312.71 471.81,442.36 -165.1,586.69 -402.25,1175.86 -627.67,1741.99 -168.49,-487.73 -246.67,-1009.86 -429.13,-1491.06 179.44,-240.59 395.84,-458.76 584.99,-693.29z"/>
   <path class="fil2" d="M8113.94 17981.33c72.68,200.32 -223.89,1017.75 -265.32,1222.19 211.19,332.79 521.26,589.97 743.43,916.89 -92.5,257.33 -231.48,494.82 -316.15,754.64l1050.55 1509.02 -129.41 0.01 -1149.43 -1472.99c84.64,-259.79 223.65,-497.31 316.15,-754.64 -222.2,-326.89 -532.29,-584.09 -743.43,-916.83 43.39,-214.42 300.86,-935.09 276.09,-1172.53l217.51 -85.75 0.01 -0.01z"/>
   <path class="fil6" d="M9116.82 17276.85c451.46,466.59 972.07,917.7 1457.41,1349.32 547.45,-432.57 901.82,-944.29 1391.35,-1432.92 104.72,115.6 608.3,751.87 720.54,788.56l48.89 0c-9.95,189.02 530.78,1065.53 633.92,1325.64 -228.65,264.56 -498.13,515.14 -682.81,812.96l367.08 639.37 -1204.38 1624.3 -637.78 0c69.82,-194.28 131.21,-382.93 171,-556.92 225.43,-566.13 462.57,-1155.3 627.67,-1741.96 -171.77,-129.67 -300.3,-311.94 -471.81,-442.38 -328.08,-325.7 -591.21,-756.52 -972.85,-1023.09 -343.68,323.66 -639.65,687.57 -969.5,1023.09 -167.01,148.7 -305.2,324.06 -467.04,477.6l753.11 2263.67 -554.78 -0.01 -1050.95 -1509.02c84.67,-259.82 223.65,-497.28 316.15,-754.64 -222.2,-326.92 -532.26,-584.09 -743.43,-916.86 47.1,-232.52 345.94,-1060.53 263.5,-1221.74l1004.7 -704.96 0.01 -0.01z"/>
   <path class="fil7" d="M12914.58 18126.46c137.74,290.09 520.89,989.44 610.05,1214.33 -228.63,264.61 -498.1,515.17 -682.78,813.01 96.71,223.63 241.22,430.98 367.08,639.39l-1179.64 1590.89 -179.87 0 1203.77 -1624.3c-125.89,-208.36 -270.38,-415.74 -367.08,-639.37 184.68,-297.82 454.16,-548.38 682.81,-812.96 -96.02,-242.15 -571.05,-1018.17 -628.33,-1276.85l-5.87 -38.47c-4.58,0.29 132.42,34.45 179.86,134.33z"/>
   <path class="fil8" d="M8159.55 14214.81c-399.86,-302.95 -743.77,-532.69 -789.94,-1142.39 -57.81,-765.76 349.7,-726.63 761.18,-332.34 -75.41,611.21 -79.45,1062.51 28.76,1474.73zm4724.05 -1493.83c451.86,-327.71 861.14,-101.63 775.76,501.94 -69.27,490.09 -434.84,716.25 -744.7,1039.57 80.51,-470.14 39.71,-976.89 -31.06,-1541.52l0 0.01z"/>
   <path class="fil9" d="M8193.69 12291.16c731.26,-197.25 1262.04,-600.68 1731.94,-1187.37 752.25,661.38 1942.93,1140.12 2920.83,1332.28 194.15,1450.47 296.49,2522.66 -1089.61,3542.02 42.78,297.95 25.98,541.02 41.91,828.12l274.48 572.72 -1506.35 1246.74 -1507.37 -1128.47c80.7,-246.41 92.23,-503.87 183.22,-750.07 14.34,-282.07 32.15,-483.9 77.81,-769.04 -1261.59,-1368.24 -1401.31,-1899.17 -1126.86,-3686.93z"/>
   <path class="fil8" d="M9320.55 15978.09c1122.48,649.74 1336.53,792.85 2436.3,0 42.78,297.89 26.04,541.02 41.91,828.12 -751.84,246.64 -1280.11,597.06 -2108.24,193.81 -154.83,-75.49 -287.34,-186.9 -447.78,-252.89 14.34,-282.07 32.17,-483.92 77.81,-769.04z"/>
   <path class="fil10" d="M10565.06 18619.72c-343.68,323.66 -639.65,687.57 -969.48,1023.12 -167.06,148.67 -305.22,324.04 -467.07,477.57 -180.15,-454.85 -624.47,-1864.17 -699.08,-2361.27l27.89 -19.58 551.82 -387.14 17.67 -11.19c457.49,472.89 1055.62,848.06 1547.42,1284.94l-9.17 -6.45zm0 0c547.42,-432.57 923.61,-950.15 1413.14,-1438.8 9.55,10.58 9.87,37.78 25.48,56.17 15.29,18.39 33.13,39.66 53,63.1 180.58,216.3 529.11,641.35 626.03,680.27l2.94 2.2c-191.45,709.51 -446.51,1404.46 -675.93,2102.54 -171.77,-129.67 -300.3,-311.94 -471.81,-442.36 -328.08,-325.73 -591.21,-756.55 -972.85,-1023.12z"/>
  </g>
 </g>
</svg>
